<svg width="31" height="36" viewBox="0 0 31 36" fill="none" xmlns="http://www.w3.org/2000/svg">
<path d="M16.4116 4.51375C17.317 3.73005 18.2219 2.94588 19.1281 2.16313C19.272 2.0388 19.4215 1.92088 19.5801 1.76273C19.5918 1.72546 19.5911 1.71593 19.6299 1.71628C19.8319 1.66973 19.995 1.62284 20.1581 1.57595C21.7536 0.931726 23.3867 0.552571 25.1184 0.879526C28.1796 1.45751 30.656 4.21582 30.9617 7.31502C31.1621 9.34596 30.5543 11.1493 29.5466 12.9054C29.2803 13.243 29.0328 13.5444 28.7353 13.8284C28.5882 13.4568 28.3932 13.2469 28.0244 13.0877C27.5787 12.8954 27.1896 12.5555 26.804 12.245C26.2957 11.8356 25.8145 11.3926 25.3419 10.9302C25.7774 10.3767 26.1926 9.857 26.6328 9.31783C26.6819 9.26392 26.7058 9.2295 26.7264 9.1965C26.723 9.19793 26.7272 9.20398 26.7609 9.18354C27.4313 8.16683 28.1242 7.20064 28.682 6.16205C28.9754 5.61592 29.1005 4.95169 29.1792 4.32542C29.2774 3.54404 29.0748 3.38001 28.2642 3.34452C26.7018 3.27613 25.3404 3.87029 23.9885 4.63709C23.7812 4.73802 23.6022 4.81443 23.4502 4.92724C22.4285 5.68556 21.4126 6.45161 20.3949 7.16801C20.3404 6.55482 19.918 6.13841 19.2517 5.91441C18.8937 5.79407 18.4857 5.67114 18.2342 5.41699C17.7164 4.89346 17.2317 4.39255 16.4116 4.51375Z" fill="#9A30D3"/>
<path d="M1.29148 29.351C-0.201797 27 -0.398769 24.5711 0.693536 22.0342C0.913653 22.1456 1.06869 22.2959 1.25435 22.3667C1.7228 22.5453 2.20572 22.6861 2.68157 22.8458C3.31663 23.0589 3.95049 23.2755 4.56719 23.5193C4.51433 23.6047 4.47915 23.6614 4.4099 23.7381C4.09341 24.1281 3.79627 24.4882 3.53133 24.8704C2.73099 26.0248 1.95431 27.196 1.77932 28.6361C1.6744 29.4996 1.86396 29.7019 2.73214 29.7832C4.4108 29.9404 5.86736 29.33 7.26159 28.5041C7.25836 28.5024 7.25645 28.5095 7.28609 28.4942C7.34905 28.4493 7.38236 28.4196 7.45387 28.3829C7.72385 28.2609 7.95563 28.1461 8.21289 28.0638C8.7082 28.6134 9.19213 29.1188 9.64105 29.6534C9.8248 29.8721 9.94459 30.1482 10.0727 30.4082C10.2778 30.8245 10.3249 31.3662 10.9411 31.4366C9.56088 32.2953 8.02681 32.5066 6.46798 32.2867C5.52461 32.1536 4.62058 31.7444 3.66145 31.444C3.22116 31.1545 2.8183 30.8804 2.35944 30.5582C2.13063 30.3443 1.95782 30.1786 1.76444 29.9881C1.70771 29.9413 1.67154 29.9192 1.64069 29.8981C1.64602 29.899 1.65039 29.8891 1.65039 29.8891C1.53866 29.7199 1.42694 29.5506 1.29148 29.351Z" fill="#9A30D3"/>
<path d="M30.3196 28.525C30.3196 28.525 30.2963 28.547 30.268 28.5865C30.1111 28.86 29.9827 29.0939 29.8542 29.3279C29.8542 29.3279 29.8453 29.3291 29.8216 29.343C29.7671 29.3795 29.7534 29.4098 29.7566 29.4478C29.7566 29.4478 29.727 29.4767 29.6974 29.5171C29.6503 29.5987 29.6328 29.64 29.6153 29.6813C29.6153 29.6813 29.6102 29.6754 29.6067 29.6773C28.5031 30.9196 27.2065 31.8658 25.576 32.2832C23.4567 32.8257 21.4747 32.3997 19.603 31.3559C19.8041 31.3594 19.9867 31.3958 20.2007 31.4575C21.0633 31.7674 21.8947 32.0518 22.7042 32.3288C22.816 31.8167 22.8804 31.4271 22.9879 31.0497C23.2086 30.2756 23.4525 29.5081 23.7297 28.741C24.0721 28.8797 24.3697 29.0196 24.6715 29.1501C25.8892 29.6767 27.1245 30.1028 28.4909 29.9492C28.9098 29.9021 29.122 29.7125 29.0356 29.3172C28.8228 28.3427 28.6892 27.3262 28.3014 26.4214C27.8956 25.4749 27.2302 24.639 26.721 23.7607C26.9798 23.7044 27.2283 23.6901 27.4059 23.5709C27.9451 23.209 28.4737 22.8266 28.9738 22.4131C29.3297 22.1188 29.6329 21.7612 29.9639 21.4294C29.9681 21.4269 29.9764 21.4218 30.0047 21.4358C30.0845 21.4843 30.136 21.519 30.1875 21.5536C30.1875 21.5536 30.1948 21.5536 30.1881 21.5869C30.225 21.6737 30.2687 21.7274 30.3124 21.781C30.3124 21.781 30.3202 21.7795 30.3097 21.821C30.3428 21.9325 30.3864 22.0025 30.4299 22.0725C30.4366 22.1221 30.4433 22.1717 30.4742 22.2827C30.6656 22.8967 30.8328 23.4492 31 24.0017C31 24.0017 30.9974 23.9879 30.9833 24.0439C30.9427 25.1074 30.9161 26.115 30.8896 27.1226C30.8896 27.1226 30.8947 27.128 30.8613 27.1486C30.8105 27.2774 30.793 27.3857 30.7756 27.4939C30.7756 27.4939 30.7597 27.5148 30.736 27.5486C30.6952 27.6624 30.6782 27.7423 30.6611 27.8222C30.6611 27.8222 30.6688 27.8192 30.6308 27.8394C30.5715 27.961 30.5503 28.0624 30.5291 28.1637C30.5291 28.1637 30.5297 28.1558 30.496 28.1692C30.442 28.2424 30.4217 28.3021 30.4013 28.3618C30.4013 28.3618 30.4002 28.3924 30.3828 28.3989C30.3501 28.4453 30.3348 28.4852 30.3196 28.525Z" fill="#2BCC62"/>
<path d="M10.9436 31.4557C10.2888 31.3912 10.2418 30.8424 10.0368 30.4207C9.90875 30.1572 9.78902 29.8776 9.60535 29.656C9.15663 29.1145 8.67292 28.6025 8.20581 28.0181C9.12976 27.1836 10.0512 26.4096 10.9739 25.6813C11.1702 25.9319 11.3747 26.3205 11.5586 26.3108C12.4893 26.2618 13.0771 26.9308 13.8172 27.274C14.2598 27.4793 14.7353 27.6127 15.196 27.7785C14.6207 28.4597 14.0454 29.1409 13.4486 29.8533C13.2862 29.9879 13.1454 30.0913 12.9589 30.2428C12.8859 30.3195 12.8586 30.3481 12.8313 30.3767C12.215 30.7341 11.5986 31.0916 10.9436 31.4557Z" fill="#8E2ACD"/>
<path d="M17.0797 29.6282C16.5498 29.0267 16.0199 28.4251 15.5 27.7521C15.9726 26.7215 16.4352 25.7623 16.9084 24.7677C16.957 24.6225 16.9949 24.5129 17.0729 24.3735C17.1525 24.1857 17.1922 24.0275 17.2541 23.8396C17.3131 23.6163 17.3501 23.4229 17.4139 23.2058C17.4444 23.1356 17.448 23.0891 17.4624 23.002C17.489 22.8519 17.505 22.7423 17.5548 22.6421C18.3774 23.6829 19.1662 24.7145 19.9661 25.7803C20.0498 25.87 20.1225 25.9255 20.1953 25.9797C20.1955 25.9785 20.1933 25.9792 20.2104 26.0026C20.2537 26.0551 20.2842 26.0786 20.3154 26.0967C20.3118 26.0969 20.3125 26.0896 20.3295 26.114C20.377 26.1636 20.4076 26.1888 20.4343 26.2142C20.4304 26.2145 20.4305 26.2067 20.4471 26.2315C20.4942 26.2813 20.5248 26.3062 20.5516 26.3313C20.5478 26.3313 20.5488 26.3238 20.5633 26.3485C20.6002 26.4051 20.6286 26.4303 20.6649 26.4486C20.667 26.4484 20.6641 26.4517 20.6666 26.4879C20.6536 26.6331 20.6749 26.7702 20.6167 26.847C19.7824 27.9463 18.9375 29.0375 18.0951 30.1306C18.136 30.1671 18.1769 30.2036 18.2178 30.2401C18.0158 30.1904 17.8137 30.1407 17.6117 30.0911C17.6117 30.0911 17.6068 30.0946 17.5933 30.0684C17.5568 30.0131 17.5283 29.9912 17.4943 29.9764C17.4943 29.9764 17.4885 29.9775 17.4801 29.9396C17.3956 29.8498 17.3196 29.798 17.2436 29.7461C17.2436 29.7461 17.2508 29.7421 17.2281 29.7198C17.1634 29.6744 17.1216 29.6513 17.0797 29.6282Z" fill="#079640"/>
<path d="M16.8675 24.8011C16.4117 25.7526 15.9558 26.7041 15.474 27.6884C15.3961 27.7434 15.3444 27.7657 15.2729 27.8087C14.7971 27.6658 14.3264 27.534 13.8881 27.3312C13.1554 26.9921 12.5735 26.3313 11.6521 26.3798C11.47 26.3893 11.2675 26.0054 11.093 25.7265C11.7151 24.8973 12.3185 24.1446 12.9649 23.4019C13.8717 23.7066 14.7379 23.9945 15.5982 24.2989C16.0268 24.4506 16.4447 24.6327 16.8675 24.8011Z" fill="#7C2CCB"/>
<path d="M17.6272 30.0716C17.8093 30.0867 18.0093 30.1364 18.2093 30.1862C18.1688 30.1496 18.1283 30.1131 18.0878 30.0765C18.9217 28.9816 19.7581 27.8886 20.5839 26.7875C20.6416 26.7106 20.6204 26.5732 20.6702 26.4411C21.1018 26.7625 21.4991 27.1069 21.8948 27.4725C21.9407 27.5172 21.9883 27.5407 22.034 27.5653C22.0322 27.5665 22.0338 27.5624 22.0313 27.6075C21.7441 28.1952 21.4245 28.7226 21.1833 29.2844C20.8674 30.0199 20.1287 30.5533 20.1683 31.4558C19.9859 31.419 19.8035 31.3822 19.5735 31.3481C19.5258 31.3508 19.4945 31.3504 19.4654 31.3167C19.4077 31.2576 19.3762 31.2363 19.3421 31.2192C19.3421 31.2192 19.3531 31.2182 19.3289 31.1986C19.2403 31.1534 19.1759 31.1277 19.1116 31.1021C19.1116 31.1021 19.1195 31.0999 19.0945 31.0772C19.0261 31.031 18.9825 31.0074 18.939 30.9839C18.5077 30.6914 18.0764 30.3988 17.6272 30.0716Z" fill="#19B050"/>
<path d="M17.1714 29.7842C17.2593 29.8014 17.3609 29.8517 17.4753 29.9362C17.3871 29.9193 17.2861 29.8683 17.1714 29.7842Z" fill="#19B050"/>
<path d="M17.4756 29.9422C17.5154 29.9183 17.5642 29.9653 17.6275 30.0775C17.5852 30.1104 17.5327 30.0673 17.4756 29.9422Z" fill="#19B050"/>
<path d="M18.9949 31.0027C19.0183 30.9867 19.0678 31.0387 19.1468 31.1497C19.1246 31.1627 19.0727 31.1167 18.9949 31.0027Z" fill="#2BCC62"/>
<path d="M25.3011 10.9411C25.7996 11.372 26.2862 11.8174 26.8003 12.229C27.1903 12.5413 27.5838 12.883 28.0345 13.0764C28.4075 13.2365 28.6047 13.4475 28.7205 13.8432C28.0945 14.5665 27.4629 15.2622 26.801 15.9281C26.5586 16.1718 26.2441 16.3448 25.8832 16.5637C25.6767 16.4238 25.544 16.2743 25.4242 16.1153C25.3463 16.0118 25.3006 15.8828 25.2168 15.7854C24.9815 15.512 24.6377 15.2877 24.5098 14.9743C24.1759 14.1564 23.5508 13.6084 22.946 13.0163C23.7467 12.3035 24.5239 11.6223 25.3011 10.9411Z" fill="#8E2ACD"/>
<path d="M25.8521 16.7156C26.113 16.9268 26.3738 17.138 26.667 17.4132C26.7307 17.512 26.7621 17.5469 26.7934 17.5818C26.7934 17.5818 26.7761 17.5686 26.7975 17.5984C27.0889 17.9591 27.4467 18.299 26.9636 18.709C26.0577 19.478 25.1315 20.2226 24.2197 20.9705C24.2256 20.9636 24.2409 20.9731 24.2187 20.9466C24.1339 20.8954 24.0712 20.8706 24.0112 20.845C24.0138 20.8443 24.0136 20.8498 23.998 20.8256C23.9581 20.7709 23.9285 20.747 23.8956 20.7292C23.8976 20.7286 23.8971 20.7328 23.8751 20.7074C23.8144 20.6602 23.7755 20.6384 23.7006 20.6059C22.6794 19.9657 21.6943 19.3361 20.7015 18.7074C20.6938 18.7081 20.6952 18.7237 20.6713 18.6925C20.5731 18.643 20.4987 18.6248 20.4127 18.5807C20.3766 18.5042 20.3521 18.4533 20.367 18.4023C20.535 18.383 20.6636 18.3639 20.8389 18.3496C21.1213 18.2891 21.3571 18.2238 21.6413 18.1644C22.2622 18.0439 22.8552 17.9752 23.402 17.7765C24.0545 17.5393 24.6674 17.1908 25.3212 16.8817C25.3771 16.8561 25.3967 16.8296 25.4491 16.7884C25.6136 16.7606 25.7329 16.7381 25.8521 16.7156Z" fill="#079640"/>
<path d="M25.8324 16.7759C25.7122 16.8286 25.5924 16.8514 25.4175 16.8473C25.289 16.7946 25.2156 16.7688 25.1422 16.743C25.1864 16.8231 25.2306 16.9033 25.2749 16.9834C24.642 17.2884 24.0264 17.6423 23.371 17.8832C22.8218 18.0851 22.2262 18.1548 21.614 18.2352C21.6565 18.1095 21.7232 17.9922 21.8176 17.96C22.5444 17.7121 22.5275 17.7256 22.232 17.0414C21.8341 16.1203 21.4684 15.1846 21.1226 14.2343C21.7501 13.8317 22.344 13.4502 22.9379 13.0686C23.5514 13.6317 24.162 14.1826 24.4882 15.0046C24.6132 15.3196 24.9489 15.545 25.1787 15.8198C25.2606 15.9177 25.3053 16.0474 25.3814 16.1514C25.4984 16.3112 25.628 16.4614 25.7952 16.6214C25.8364 16.6667 25.8346 16.7064 25.8324 16.7759Z" fill="#7629C8"/>
<path d="M24.1619 21.0273C25.1214 20.2699 26.0898 19.5226 27.037 18.7508C27.542 18.3393 27.168 17.9982 26.8702 17.6274C27.2998 17.942 27.7449 18.2953 28.2401 18.6952C28.3294 18.7613 28.3688 18.7807 28.4081 18.8001C28.4081 18.8001 28.4083 18.7923 28.411 18.8253C28.4515 18.8791 28.4892 18.8998 28.527 18.9205C28.527 18.9205 28.5152 18.9083 28.5037 18.9447C28.4896 19.0017 28.487 19.0223 28.4733 19.0716C28.5617 19.2315 28.6613 19.3626 28.7767 19.5233C28.8263 19.6106 28.8601 19.6685 28.8726 19.7598C28.5926 20.002 28.3449 20.2258 28.0728 20.4168C27.226 21.0114 26.3699 21.5936 25.4848 22.1815C25.4307 22.1844 25.4092 22.1864 25.3907 22.1862C25.3939 22.1839 25.396 22.1912 25.3783 22.1671C25.3298 22.1176 25.299 22.0921 25.2722 22.0662C25.2761 22.0658 25.2757 22.0735 25.2572 22.0497C25.2074 22.0004 25.1762 21.9748 25.1502 21.9492C25.1555 21.9491 25.1555 21.9593 25.1373 21.9352C25.0881 21.8848 25.0573 21.8585 25.0308 21.8321C25.035 21.8321 25.035 21.8403 25.0166 21.8164C24.9673 21.7667 24.9362 21.7409 24.9094 21.7165C24.9137 21.718 24.9106 21.7261 24.8995 21.6894C24.8069 21.5969 24.7253 21.541 24.6076 21.4729C24.435 21.3162 24.2984 21.1718 24.1619 21.0273Z" fill="#19B050"/>
<path d="M30.9998 23.8577C30.845 23.3509 30.6952 22.7924 30.5439 22.1862C30.6966 22.6943 30.8507 23.2502 30.9998 23.8577Z" fill="#5B1DBA"/>
<path d="M30.0775 21.1338C30.0775 21.1338 30.0568 21.1597 30.0693 21.2118C30.084 21.3178 30.0861 21.3718 30.0882 21.4258C30.0882 21.4258 30.0787 21.4312 30.0379 21.4097C29.763 20.9913 29.5289 20.5942 29.3284 20.2107C29.4204 20.2633 29.4788 20.3023 29.5373 20.3413C29.5373 20.3413 29.5459 20.3378 29.5475 20.3783C29.6339 20.515 29.7186 20.6113 29.8033 20.7076C29.8033 20.7076 29.8108 20.7076 29.8128 20.7459C29.8576 20.8198 29.9004 20.8554 29.9431 20.8909C29.9431 20.8909 29.9195 20.9042 29.9335 20.9589C29.9908 21.0536 30.0342 21.0937 30.0775 21.1338Z" fill="#2BCC62"/>
<path d="M28.7541 19.147C28.8458 19.2672 28.9376 19.3873 29.0244 19.5514C29.0194 19.5953 29.0032 19.6115 28.9801 19.5986C28.9169 19.5488 28.8769 19.512 28.83 19.4444C28.7851 19.3419 28.7471 19.27 28.7205 19.1855C28.7319 19.1729 28.7541 19.147 28.7541 19.147Z" fill="#5B1DBA"/>
<path d="M29.9836 21.3429C29.9416 21.2733 29.939 21.2185 29.9363 21.1225C30.0381 21.1821 30.1401 21.283 30.2402 21.4259C30.1666 21.4311 30.0949 21.3944 29.9836 21.3429Z" fill="#5B1DBA"/>
<path d="M29.4803 20.2107C29.4508 20.21 29.4182 20.1756 29.3651 20.1324C29.3446 20.1236 29.3489 20.1288 29.3468 20.096C29.3374 20.0208 29.3301 19.9784 29.3284 19.9288C29.334 19.9216 29.345 19.9068 29.345 19.9068C29.3891 19.9969 29.4332 20.087 29.4803 20.2107Z" fill="#5B1DBA"/>
<path d="M29.7841 20.6666C29.6858 20.6078 29.5863 20.5053 29.4802 20.3627C29.5768 20.4227 29.6798 20.5228 29.7841 20.6666Z" fill="#5B1DBA"/>
<path d="M30.5465 28.1126C30.5323 28.0368 30.5767 27.9335 30.6923 27.8087C30.7107 27.8865 30.6579 27.9859 30.5465 28.1126Z" fill="#5B1DBA"/>
<path d="M29.2157 19.7548C29.2494 19.7901 29.2831 19.8253 29.3258 19.8808C29.3348 19.9011 29.3183 19.9114 29.2841 19.9048C29.2209 19.8616 29.1919 19.8251 29.1763 19.7802C29.1896 19.7719 29.2157 19.7548 29.2157 19.7548Z" fill="#5B1DBA"/>
<path d="M30.392 21.7303C30.3439 21.7116 30.2884 21.6619 30.24 21.5784C30.2929 21.5961 30.3387 21.6478 30.392 21.7303Z" fill="#5B1DBA"/>
<path d="M30.7002 27.8087C30.6815 27.7456 30.7216 27.6418 30.8415 27.5048C30.8672 27.5704 30.8131 27.6692 30.7002 27.8087Z" fill="#5B1DBA"/>
<path d="M28.4165 19.1154C28.4192 19.0893 28.422 19.0633 28.4304 18.9984C28.4757 18.9852 28.5153 19.0108 28.5659 19.0793C28.5769 19.1222 28.5507 19.1546 28.517 19.1454C28.4611 19.1293 28.4388 19.1223 28.4165 19.1154Z" fill="#5B1DBA"/>
<path d="M28.4166 18.8417C28.3916 18.8515 28.338 18.807 28.2646 18.6935C28.2926 18.6788 28.3403 18.7331 28.4166 18.8417Z" fill="#5B1DBA"/>
<path d="M26.8971 17.6271C26.8585 17.6319 26.8135 17.5781 26.7451 17.4755C26.778 17.4739 26.8344 17.5212 26.8971 17.6271Z" fill="#19B050"/>
<path d="M29.9361 20.8185C29.9036 20.8166 29.847 20.7689 29.7842 20.6666C29.8227 20.6656 29.8674 20.7192 29.9361 20.8185Z" fill="#5B1DBA"/>
<path d="M29.0578 19.6029C29.1006 19.6167 29.1288 19.6446 29.1713 19.7012C29.1887 19.726 29.1592 19.7577 29.1189 19.7546C29.0481 19.7193 29.0301 19.6801 29.0244 19.634C29.0244 19.634 29.0464 19.613 29.0578 19.6029Z" fill="#5B1DBA"/>
<path d="M28.6057 18.995C28.648 19.0043 28.675 19.0319 28.7157 19.0878C28.7324 19.1124 28.7035 19.146 28.6644 19.147C28.5953 19.1198 28.5764 19.0839 28.5686 19.0402C28.5686 19.0402 28.593 19.0098 28.6057 18.995Z" fill="#5B1DBA"/>
<path d="M4.57041 23.5538C3.94526 23.3356 3.32063 23.1159 2.69481 22.8998C2.22588 22.7379 1.74998 22.5951 1.28835 22.414C1.1054 22.3422 0.952613 22.1898 0.759766 22.0424C0.790562 21.8725 0.847683 21.7342 0.954657 21.5509C1.03082 21.4756 1.05714 21.4453 1.08346 21.415C1.44939 20.7481 1.7876 20.0628 2.1926 19.4218C2.40493 19.0858 2.73439 18.8273 3.03217 18.5006C3.10837 18.4355 3.16336 18.4035 3.27153 18.3872C3.71078 18.6598 4.09471 18.9204 4.48352 19.173C4.87412 19.4268 5.37242 19.5912 5.63785 19.9421C5.99986 20.4207 6.30598 20.9198 6.83817 21.2206C6.06772 22.0201 5.31906 22.787 4.57041 23.5538Z" fill="#8E2ACD"/>
<path d="M2.38491 14.3057C2.36317 14.2719 2.34144 14.2381 2.28138 14.1556C2.13802 14.0135 2.03298 13.9201 1.92794 13.8267C1.92794 13.8267 1.92436 13.8271 1.91762 13.7907C1.83471 13.6083 1.75853 13.4623 1.67787 13.2749C1.59686 13.1263 1.52035 13.0193 1.44736 12.9108C1.45088 12.9095 1.45105 12.9169 1.43489 12.8936C1.39436 12.8406 1.36552 12.8161 1.33416 12.7981C1.33611 12.7995 1.33124 12.8001 1.3265 12.7665C1.28539 12.677 1.24902 12.6212 1.21582 12.5668C1.21899 12.5683 1.21194 12.5689 1.21965 12.5282C1.37384 12.4134 1.51392 12.3202 1.66843 12.2702C1.86461 12.2067 2.09404 12.2189 2.27174 12.1278C3.22047 11.6416 4.34985 11.4019 4.88323 10.3333C4.88582 10.3386 4.87546 10.3445 4.87722 10.3821C4.94965 10.4806 5.02031 10.5415 5.08654 10.6041C5.0821 10.6057 5.07896 10.5969 5.09617 10.621C5.14345 10.6708 5.17352 10.6965 5.19947 10.7222C5.19536 10.7222 5.19548 10.7141 5.21316 10.7377C5.26109 10.7863 5.29134 10.8113 5.31746 10.8363C5.31334 10.8363 5.31354 10.8282 5.33076 10.8519C5.37778 10.901 5.40757 10.9263 5.43352 10.9519C5.42967 10.9522 5.4303 10.9447 5.44717 10.9683C5.49363 11.0169 5.52322 11.0418 5.54934 11.0674C5.54587 11.068 5.54689 11.0612 5.56413 11.0846C5.61118 11.1329 5.641 11.1577 5.6669 11.1828C5.66297 11.1831 5.66313 11.1754 5.68113 11.1987C5.72923 11.2472 5.75933 11.2725 5.78472 11.2977C5.78001 11.2978 5.78001 11.2885 5.79797 11.3121C5.84604 11.3614 5.87616 11.3871 5.90158 11.4128C5.89688 11.4128 5.89689 11.4036 5.91502 11.4272C5.96346 11.4765 5.99375 11.5022 6.0201 11.5264C6.01615 11.525 6.01913 11.5173 6.0222 11.5596C6.14893 11.6894 6.2726 11.777 6.43055 11.8809C6.90692 12.2629 7.34899 12.6284 7.75011 13.0077C6.59145 13.6529 5.46675 14.2727 4.36176 14.9249C4.13283 15.06 3.97708 15.3153 3.74813 15.4999C3.63142 15.4533 3.55417 15.4219 3.47693 15.3905C3.47693 15.3905 3.46652 15.4038 3.46317 15.3762C3.42029 15.3303 3.38077 15.3121 3.34124 15.2938C3.34124 15.2938 3.34139 15.3084 3.33903 15.2754C3.29819 15.223 3.25973 15.2034 3.22126 15.1839C3.22126 15.1839 3.23272 15.1923 3.22443 15.1522C3.10297 15.0215 2.98981 14.931 2.87665 14.8405C2.87665 14.8405 2.8685 14.8496 2.86555 14.8207C2.82579 14.7689 2.78899 14.746 2.75219 14.7232C2.75219 14.7232 2.76268 14.7345 2.75444 14.6955C2.62577 14.5395 2.50534 14.4226 2.38491 14.3057Z" fill="#19B050"/>
<path d="M6.91644 21.1225C6.36047 20.8604 6.05324 20.3728 5.68993 19.9052C5.42355 19.5624 4.92346 19.4018 4.53145 19.1538C4.14124 18.907 3.75593 18.6525 3.34302 18.3709C3.88888 17.8287 4.4602 17.3169 5.08519 16.7559C5.61564 16.4867 6.09241 16.2667 6.58659 16.0539C6.64538 16.0593 6.67384 16.0382 6.71584 15.9758C6.76475 15.9491 6.78721 15.9444 6.80775 15.9914C6.87208 16.2581 6.9011 16.4946 7.01116 16.6844C7.43427 17.4139 7.85441 18.1487 8.33812 18.838C8.51206 19.0859 8.86227 19.2108 9.1175 19.4284C8.37413 20.0174 7.64529 20.5699 6.91644 21.1225Z" fill="#7C2CCB"/>
<path d="M6.81624 15.9233C6.79387 15.9281 6.77151 15.9329 6.68981 15.965C6.61256 16.0056 6.59464 16.0188 6.57672 16.032C6.10188 16.2558 5.62704 16.4795 5.11092 16.7156C5.01287 16.7021 4.95611 16.6761 4.86822 16.598C4.8021 16.5264 4.76711 16.5069 4.73213 16.4873C4.73213 16.4873 4.72774 16.4917 4.71064 16.4609C4.63529 16.3985 4.57704 16.3669 4.51879 16.3354C4.51879 16.3354 4.52456 16.3421 4.511 16.3077C4.38435 16.1945 4.27127 16.1157 4.15818 16.037C4.15818 16.037 4.12812 16.0056 4.09208 15.9686C3.97038 15.8306 3.88473 15.7297 3.79907 15.6288C3.98616 15.4247 4.13995 15.1641 4.36599 15.0262C5.45707 14.3603 6.5676 13.7275 7.70739 13.0754C7.74354 13.0679 7.72992 13.0609 7.75388 13.0877C7.84243 13.142 7.90702 13.1693 7.96755 13.1977C7.96348 13.1988 7.96146 13.1905 7.9774 13.215C8.01699 13.2709 8.04477 13.2978 8.10778 13.3462C8.93194 13.8223 9.72498 14.2723 10.6373 14.79C10.1696 14.8948 9.87707 14.9604 9.54367 15.0219C8.60728 15.3196 7.71176 15.6215 6.81624 15.9233Z" fill="#079640"/>
<path d="M9.25636 0.73059C9.25636 0.73059 9.3095 0.733974 9.37 0.761241C9.64604 0.860555 9.86159 0.932605 10.0771 1.00465C10.1364 1.03888 10.1956 1.07311 10.316 1.11845C10.3772 1.12956 10.4328 1.13903 10.4328 1.13903C10.5441 1.23561 10.6553 1.33218 10.7826 1.46762C10.7987 1.50649 10.7856 1.52288 10.7425 1.51907C10.6416 1.50784 10.5839 1.50041 10.5183 1.49007C10.5104 1.48716 10.5046 1.50451 10.4763 1.46478C10.249 1.36335 10.05 1.30164 9.85622 1.24225C9.86139 1.24457 9.86671 1.23371 9.83632 1.19726C9.64084 1.09655 9.47884 1.01939 9.31018 0.970044C7.42013 0.416981 5.59361 0.650641 3.81488 1.51597C3.80962 1.50905 3.79907 1.49524 3.79907 1.49524C4.70017 0.738796 5.77419 0.606051 6.84488 0.474484C7.13583 0.438735 7.4331 0.46603 7.7825 0.463273C8.08224 0.505683 8.32697 0.549207 8.65778 0.614329C8.9147 0.667481 9.08553 0.699036 9.25636 0.73059Z" fill="#551997"/>
<path d="M1.19128 12.7646C0.944176 12.3898 0.697066 12.0149 0.455811 11.5938C0.461665 11.5476 0.477823 11.538 0.505203 11.5609C0.590891 11.6557 0.649201 11.7277 0.715152 11.8349C0.885187 12.091 1.04758 12.312 1.20998 12.533C1.20998 12.533 1.21763 12.5325 1.20984 12.5665C1.2092 12.6477 1.21635 12.6947 1.21555 12.7476C1.20759 12.7534 1.19128 12.7646 1.19128 12.7646Z" fill="#551997"/>
<path d="M2.1523 2.73529C2.1523 2.73529 2.19717 2.7367 2.23265 2.74736C2.26812 2.75802 2.29413 2.77709 2.2705 2.80544C2.0002 3.01431 1.75353 3.19483 1.51978 3.34313C1.59328 3.23451 1.65386 3.1581 1.71444 3.08169C1.74075 3.08378 1.76041 3.07564 1.81101 3.02512C1.86869 2.9534 1.88879 2.9138 1.90889 2.87421C1.90889 2.87421 1.90052 2.87445 1.93839 2.87297C1.99713 2.83876 2.01801 2.80603 2.03888 2.77329C2.03888 2.77329 2.03219 2.77837 2.06891 2.7762C2.12119 2.76112 2.13675 2.7482 2.1523 2.73529Z" fill="#36CE6E"/>
<path d="M3.03906 1.94144C3.26693 1.75354 3.4948 1.56565 3.76079 1.36969C3.79891 1.36162 3.80852 1.37717 3.7891 1.42094C3.53561 1.63872 3.30154 1.81274 3.06032 1.97549C3.05317 1.96422 3.03906 1.94144 3.03906 1.94144Z" fill="#551997"/>
<path d="M1.58238 13.3265C1.66031 13.4815 1.73824 13.6365 1.82356 13.8284C1.67472 13.6911 1.5185 13.517 1.36768 13.2894C1.37307 13.2359 1.40403 13.2067 1.43369 13.227C1.50302 13.2737 1.5427 13.3001 1.58238 13.3265Z" fill="#551997"/>
<path d="M3.70189 15.5778C3.80156 15.7041 3.87007 15.8135 3.951 15.9558C3.80979 15.8415 3.65615 15.6942 3.49512 15.5018C3.54872 15.4914 3.60972 15.5262 3.70189 15.5778Z" fill="#551997"/>
<path d="M2.2793 14.4362C2.4232 14.504 2.57089 14.6073 2.73518 14.7401C2.59555 14.6703 2.43931 14.571 2.2793 14.4362Z" fill="#551997"/>
<path d="M4.10303 15.9558C4.19514 16.0102 4.29384 16.1144 4.40695 16.2597C4.31744 16.2024 4.21353 16.104 4.10303 15.9558Z" fill="#551997"/>
<path d="M2.88721 14.8921C2.98325 14.9495 3.08189 15.0532 3.19113 15.196C3.09775 15.1363 2.99378 15.0373 2.88721 14.8921Z" fill="#551997"/>
<path d="M1.82349 13.8284C1.91707 13.8903 2.01673 13.9929 2.12741 14.1323C2.03547 14.0691 1.93252 13.9691 1.82349 13.8284Z" fill="#551997"/>
<path d="M1.47475 13.2205C1.38157 13.108 1.30348 12.9815 1.21778 12.8172C1.21016 12.7794 1.225 12.7672 1.25843 12.7656C1.29185 12.7641 1.34506 12.7648 1.34506 12.7648C1.34506 12.7648 1.34988 12.7642 1.35214 12.7963C1.39075 12.8472 1.4271 12.8659 1.46345 12.8846C1.46345 12.8846 1.46328 12.8769 1.45412 12.9171C1.46989 13.031 1.49481 13.1047 1.51974 13.1784C1.51974 13.1784 1.48984 13.2066 1.47475 13.2205Z" fill="#551997"/>
<path d="M2.73535 2.09944C2.81254 2.01169 2.88973 1.92394 2.99822 1.82608C3.02952 1.81597 3.0427 1.83648 3.03852 1.87442C3.00262 1.95847 2.97089 2.00459 2.90938 2.06336C2.84103 2.09634 2.80247 2.11668 2.7569 2.12744C2.74991 2.11786 2.73535 2.09944 2.73535 2.09944Z" fill="#551997"/>
<path d="M1.6716 3.03922C1.65324 3.13994 1.5932 3.25798 1.52128 3.42768C1.5094 3.47934 1.50908 3.48121 1.48095 3.48501C1.45283 3.48879 1.39712 3.501 1.38976 3.49164C1.3824 3.48226 1.36768 3.46352 1.36768 3.46352C1.45509 3.32786 1.5425 3.19219 1.6716 3.03922Z" fill="#551997"/>
<path d="M1.21582 3.62791C1.2507 3.58753 1.28558 3.54714 1.34048 3.49835C1.36051 3.48995 1.36912 3.49775 1.36761 3.52175C1.36197 3.57273 1.35782 3.59971 1.35705 3.62206C1.36042 3.61742 1.34979 3.61164 1.33164 3.61596C1.29181 3.63134 1.27014 3.64241 1.24036 3.64705C1.23224 3.6406 1.21582 3.62791 1.21582 3.62791Z" fill="#551997"/>
<path d="M0.911865 4.06484C0.980771 3.9386 1.04968 3.81235 1.1503 3.65805C1.18201 3.63001 1.21122 3.65825 1.21579 3.71228C1.20742 3.81903 1.1945 3.87175 1.18518 3.92857C1.18878 3.93268 1.18751 3.92131 1.15534 3.93806C1.07177 4.00844 1.02037 4.06208 0.954748 4.10293C0.940515 4.09015 0.911865 4.06484 0.911865 4.06484Z" fill="#551997"/>
<path d="M0.759766 4.36183C0.793796 4.23796 0.827826 4.11409 0.878534 3.96256C0.895211 3.93491 0.910486 3.95891 0.911726 4.01159C0.874926 4.1835 0.836886 4.30274 0.789109 4.40685C0.779372 4.39174 0.759766 4.36183 0.759766 4.36183Z" fill="#551997"/>
<path d="M2.2793 2.58332C2.35355 2.48413 2.42781 2.38494 2.53985 2.2806C2.57764 2.27545 2.58639 2.28695 2.58229 2.31431C2.5782 2.34166 2.57341 2.39695 2.57419 2.39868C2.57498 2.40041 2.57447 2.398 2.54885 2.40801C2.50452 2.45334 2.48581 2.48866 2.46999 2.52113C2.47289 2.51829 2.46863 2.51089 2.43586 2.51743C2.36182 2.54376 2.32056 2.56354 2.2793 2.58332Z" fill="#551997"/>
<path d="M2.17998 2.62183C2.26045 2.59212 2.32891 2.57941 2.43136 2.58438C2.3709 2.64645 2.27645 2.69087 2.182 2.73529C2.182 2.73529 2.14719 2.72032 2.1297 2.71287C2.12063 2.68136 2.13921 2.65917 2.17998 2.62183Z" fill="#36CE6E"/>
<path d="M0.455811 4.82163C0.467084 4.73313 0.492136 4.65843 0.55115 4.56493C0.585112 4.54613 0.612215 4.57294 0.607162 4.61366C0.567187 4.72383 0.532264 4.79328 0.497343 4.86273C0.497343 4.86273 0.469591 4.83542 0.455811 4.82163Z" fill="#551997"/>
<path d="M0.60791 4.53861C0.622936 4.49679 0.650955 4.46174 0.700784 4.41234C0.722591 4.39799 0.754653 4.41335 0.75987 4.43984C0.725744 4.49716 0.686396 4.52798 0.64705 4.55881C0.64705 4.55881 0.620905 4.54538 0.60791 4.53861Z" fill="#551997"/>
<path d="M4.55908 16.2598C4.59492 16.2609 4.64493 16.313 4.71104 16.4117C4.67585 16.4091 4.62455 16.3599 4.55908 16.2598Z" fill="#551997"/>
<path d="M0.433401 11.549C0.389737 11.4844 0.353662 11.4131 0.306565 11.301C0.295544 11.2601 0.320702 11.2327 0.358048 11.2507C0.415566 11.3552 0.435741 11.4417 0.455915 11.5283C0.455915 11.5283 0.440991 11.5423 0.433401 11.549Z" fill="#551997"/>
<path d="M2.58325 2.25947C2.60007 2.21406 2.62919 2.18087 2.69255 2.13447C2.72034 2.11589 2.74152 2.13568 2.73349 2.17571C2.69171 2.25094 2.65037 2.27216 2.60145 2.2794C2.60145 2.2794 2.58907 2.26632 2.58325 2.25947Z" fill="#551997"/>
<path d="M4.71069 16.4132C4.74035 16.4028 4.79467 16.4461 4.86265 16.5555C4.82156 16.585 4.77457 16.5335 4.71069 16.4132Z" fill="#551997"/>
<path d="M3.34302 15.3522C3.37333 15.3335 3.42683 15.3765 3.49498 15.4945C3.46182 15.5177 3.41402 15.4658 3.34302 15.3522Z" fill="#551997"/>
<path d="M2.73535 14.7413C2.7676 14.7319 2.82164 14.7782 2.88731 14.8902C2.85168 14.903 2.80441 14.85 2.73535 14.7413Z" fill="#551997"/>
<path d="M16.3213 4.58292C17.1845 4.44207 17.6746 4.942 18.1981 5.46451C18.4523 5.71817 18.8648 5.84085 19.2267 5.96096C19.9004 6.18452 20.3274 6.60012 20.3627 7.24495C19.6829 8.07705 19.0229 8.82927 18.3221 9.57349C17.5006 9.16154 16.7049 8.78283 15.9441 8.34499C15.4147 8.04024 14.9332 7.6543 14.4363 7.26458C14.77 6.64879 15.0977 6.07307 15.459 5.48395C15.538 5.36569 15.5836 5.26083 15.6292 5.15596C15.8485 4.97158 16.0678 4.7872 16.3213 4.58292Z" fill="#8E2ACD"/>
<path d="M14.6278 4.33059C14.6493 4.36306 14.6708 4.39552 14.7195 4.47442C14.748 4.54275 14.7493 4.56465 14.7089 4.5881C14.5805 4.62605 14.4756 4.64263 14.4094 4.70184C13.6335 5.39587 12.8624 6.0953 12.0921 6.79556C11.7956 7.06511 11.5044 7.34039 11.1748 7.59801C10.4332 6.97966 9.72745 6.37638 9.00636 5.73482C8.83789 5.602 8.68481 5.50744 8.52445 5.42447C8.51718 5.43606 8.49317 5.42275 8.52872 5.39413C9.35033 4.7866 10.1657 4.24207 10.9108 3.61507C11.3166 3.27352 11.6031 2.79202 11.974 2.37071C12.0611 2.34554 12.1176 2.32331 12.2004 2.29657C12.2267 2.29207 12.2787 2.28074 12.2787 2.28074C12.2787 2.28074 12.2787 2.27176 12.2787 2.3003C12.2787 2.32885 12.2904 2.38357 12.3082 2.40423C12.3526 2.45007 12.3821 2.4713 12.411 2.48895C12.4075 2.48934 12.4086 2.48244 12.4255 2.50625C12.4728 2.55429 12.5031 2.57853 12.5294 2.6031C12.5255 2.60344 12.5255 2.59555 12.5494 2.62023C12.6367 2.66939 12.7 2.69386 12.7608 2.72004C12.7584 2.72174 12.7575 2.71589 12.7828 2.74131C12.8502 2.78954 12.8922 2.81233 12.9609 2.8397C13.0199 2.86177 13.0546 2.86972 13.0915 2.86814C13.0915 2.86814 13.0895 2.85898 13.0981 2.89026C13.1711 3.00688 13.2354 3.09221 13.3271 3.19887C13.3914 3.24679 13.4284 3.2734 13.4613 3.3003C13.4572 3.3006 13.4567 3.29251 13.479 3.31629C13.5375 3.36421 13.5736 3.38836 13.6412 3.42949C13.792 3.52023 13.9115 3.59398 14.031 3.66773C14.031 3.66773 14.0352 3.65721 14.0379 3.68671C14.0753 3.73947 14.1101 3.76273 14.1449 3.78598C14.1449 3.78598 14.1456 3.77407 14.1481 3.80598C14.1863 3.86096 14.222 3.88404 14.2577 3.90711C14.2577 3.90711 14.2583 3.89392 14.2616 3.9255C14.3009 3.97954 14.3369 4.00199 14.3729 4.02445C14.3729 4.02445 14.3733 4.01074 14.3756 4.04328C14.414 4.09907 14.45 4.12233 14.486 4.14558C14.486 4.14558 14.4832 4.12725 14.4816 4.16276C14.5294 4.24238 14.5786 4.28649 14.6278 4.33059Z" fill="#19B050"/>
<path d="M11.2451 7.66794C11.5391 7.38639 11.8307 7.10215 12.1275 6.82382C12.8987 6.10077 13.6707 5.37858 14.4476 4.66195C14.5138 4.60082 14.6188 4.58369 14.7731 4.55881C14.8887 4.60495 14.9369 4.63839 14.9851 4.67185C14.9851 4.67185 14.9906 4.67318 14.9997 4.70062C15.0398 4.75503 15.0709 4.78201 15.102 4.80899C15.1082 4.84393 15.1242 4.8732 15.1825 4.94747C15.31 5.12132 15.405 5.24449 15.5 5.36766C15.1771 5.95669 14.8543 6.54572 14.4959 7.20877C14.1707 8.29362 13.8809 9.30447 13.5643 10.3482C13.5259 10.4642 13.5143 10.5473 13.4992 10.6325C13.4957 10.6346 13.5009 10.641 13.4605 10.6342C12.9003 9.87683 12.3803 9.12632 11.8433 8.34902C11.7954 8.29379 11.7646 8.26535 11.7086 8.22481C11.6522 8.18874 11.6327 8.15718 11.6161 8.08306C11.5379 7.98971 11.4686 7.93133 11.3967 7.87555C11.3939 7.87815 11.399 7.87267 11.3902 7.8384C11.3386 7.75015 11.2958 7.69616 11.2564 7.65036C11.2598 7.65854 11.2451 7.66794 11.2451 7.66794Z" fill="#079640"/>
<path d="M13.272 3.212C13.2084 3.13016 13.1449 3.04831 13.0686 2.93848C13.1473 2.90431 13.2387 2.89812 13.3793 2.88832C13.4285 2.88471 13.4229 2.89129 13.4229 2.89129C13.6038 3.13152 13.7848 3.37174 13.9804 3.64704C13.8769 3.61138 13.7588 3.54065 13.5915 3.42648C13.5039 3.36278 13.4656 3.34251 13.4272 3.32224C13.4272 3.32224 13.4278 3.33001 13.4153 3.29916C13.3592 3.24954 13.3156 3.23077 13.272 3.212Z" fill="#551997"/>
<path d="M12.3079 2.24219C12.3151 2.27777 12.2655 2.2879 12.2157 2.27228C12.1263 2.24351 12.0865 2.23035 12.0262 2.21659C12.0056 2.21601 12.0036 2.25441 12.0051 2.22106C11.9682 2.16279 11.9297 2.13786 11.8776 2.09247C11.8168 2.06334 11.7698 2.05468 11.7047 2.01646C11.6417 1.97145 11.5968 1.95601 11.5536 1.94301C11.5553 1.94545 11.5578 1.94013 11.5558 1.91698C11.5539 1.89384 11.5445 1.84826 11.5512 1.84207C11.558 1.83586 11.5716 1.82352 11.5716 1.82352C11.8147 1.95122 12.0577 2.07891 12.3079 2.24219Z" fill="#551997"/>
<path d="M12.3238 2.36981C12.3238 2.36981 12.3128 2.30971 12.3086 2.2794C12.5558 2.43704 12.8073 2.62498 13.0684 2.85746C13.0434 2.90372 13.0107 2.89499 12.9337 2.83893C12.8461 2.77964 12.8049 2.75721 12.7637 2.73477C12.7637 2.73477 12.7645 2.74121 12.7486 2.70542C12.6702 2.6473 12.6077 2.62495 12.5452 2.60261C12.5452 2.60261 12.5451 2.61128 12.5441 2.57535C12.5071 2.51907 12.4711 2.49873 12.4351 2.47839C12.4351 2.47839 12.4341 2.48597 12.426 2.45697C12.3927 2.3953 12.3613 2.37591 12.3238 2.36981Z" fill="#551997"/>
<path d="M15.5265 5.47057C15.398 5.34398 15.3026 5.20155 15.196 5.01603C15.3262 5.00741 15.4676 5.04188 15.6519 5.07944C15.6497 5.20659 15.6047 5.33066 15.5265 5.47057Z" fill="#551997"/>
<path d="M10.8093 1.36765C11.051 1.47612 11.2861 1.594 11.5406 1.75666C11.5601 1.80144 11.545 1.81904 11.4976 1.82348C11.3972 1.82401 11.3443 1.8201 11.2913 1.82092C11.2913 1.82564 11.2978 1.82029 11.2769 1.78243C11.1859 1.71956 11.1157 1.69455 11.0453 1.67431C11.0451 1.67907 11.0505 1.67203 11.0315 1.63278C10.9416 1.57025 10.8706 1.54699 10.8011 1.52771C10.8025 1.5317 10.8053 1.52371 10.8038 1.4912C10.8023 1.4587 10.7891 1.39555 10.7891 1.39555C10.7891 1.39555 10.8027 1.37705 10.8093 1.36765Z" fill="#551997"/>
<path d="M10.0254 0.911772C9.83294 0.888383 9.64227 0.840975 9.42163 0.77548C9.53952 0.756245 9.68738 0.755091 9.89492 0.76998C9.97689 0.806421 10.0018 0.8243 10.0295 0.83966C10.0287 0.855691 10.028 0.871721 10.0254 0.911772Z" fill="#6422BE"/>
<path d="M9.26971 0.759779C9.10442 0.761049 8.92007 0.719772 8.69337 0.651694C8.65102 0.624899 8.65025 0.54039 8.69788 0.498136C8.84123 0.455887 8.93695 0.455887 9.03267 0.455887C9.10532 0.543004 9.17798 0.630115 9.26971 0.759779Z" fill="#6422BE"/>
<path d="M10.1128 0.911772C10.0747 0.898735 10.0567 0.872419 10.0293 0.81886C10.0725 0.783489 10.1269 0.771648 10.1813 0.759811C10.1644 0.807271 10.1476 0.854735 10.1128 0.911772Z" fill="#5C1EBA"/>
<path d="M15.0442 4.71059C14.9739 4.71321 14.9001 4.68704 14.7868 4.64966C14.7454 4.62078 14.7435 4.60308 14.7402 4.55881C14.8395 4.58208 14.94 4.63193 15.0442 4.71059Z" fill="#551997"/>
<path d="M13.5244 2.8872C13.5534 2.8388 13.5847 2.78623 13.6212 2.73706C13.6258 2.73087 13.6573 2.74263 13.6764 2.74607C13.6448 2.78853 13.6132 2.83098 13.5517 2.88257C13.5218 2.89171 13.5284 2.88408 13.5244 2.8872Z" fill="#5C1EBA"/>
<path d="M14.1324 3.79823C14.1005 3.80577 14.0467 3.75868 13.9805 3.64834C14.0155 3.63793 14.063 3.69077 14.1324 3.79823Z" fill="#551997"/>
<path d="M14.284 3.94998C14.2522 3.95857 14.1985 3.91172 14.1321 3.80057C14.167 3.78902 14.2146 3.84178 14.284 3.94998Z" fill="#551997"/>
<path d="M29.9363 29.3283C30.0075 29.0916 30.1102 28.8431 30.2402 28.5685C30.1676 28.8004 30.0677 29.0585 29.9363 29.3283Z" fill="#5B1DBA"/>
<path d="M29.8074 29.4803C29.7548 29.441 29.7899 29.3862 29.9299 29.3283C29.954 29.3624 29.9074 29.4089 29.8074 29.4803Z" fill="#5B1DBA"/>
<path d="M29.6342 29.6322C29.6214 29.6103 29.6653 29.5578 29.7807 29.4803C29.7984 29.504 29.7448 29.5529 29.6342 29.6322Z" fill="#5B1DBA"/>
<path d="M26.7227 9.11761C26.7374 8.71896 26.7689 8.29739 26.8374 7.88171C27.1486 5.99277 25.9829 4.64244 24.0098 4.63687C25.295 3.86791 26.6633 3.28085 28.2337 3.34842C29.0485 3.38348 29.2521 3.54556 29.1534 4.3176C29.0743 4.93637 28.9485 5.59266 28.6537 6.13226C28.093 7.15843 27.3966 8.11307 26.7227 9.11761Z" fill="#551997"/>
<path d="M4.4124 23.7058C4.33656 24.1966 4.18388 24.7023 4.12635 25.2191C3.92326 27.0432 4.81336 28.6451 7.14209 28.4791C5.83263 29.3055 4.41327 29.9168 2.77748 29.7594C1.93147 29.678 1.74674 29.4754 1.84899 28.6106C2.01951 27.1685 2.77636 25.9958 3.55626 24.8397C3.81444 24.457 4.10399 24.0964 4.4124 23.7058Z" fill="#551997"/>
<path d="M7.29419 28.5685C7.29933 28.5442 7.34976 28.4937 7.44615 28.4165C7.44123 28.4407 7.39035 28.4915 7.29419 28.5685Z" fill="#551997"/>
<path d="M1.82359 30.0879C1.8023 30.092 1.752 30.0405 1.67163 29.9363C1.69257 29.9331 1.74358 29.9827 1.82359 30.0879Z" fill="#5219B6"/>
<path d="M23.2867 28.1906C24.9655 28.5315 25.9295 28.2041 26.5085 27.0565C27.0117 26.0593 26.9114 25.0201 26.6372 23.982C26.6027 23.8514 26.5405 23.7284 26.5114 23.5692C26.5502 23.544 26.5687 23.5516 26.5998 23.5787C26.6315 23.6231 26.6544 23.6435 26.681 23.6594C27.2253 24.5509 27.8815 25.3935 28.2816 26.3477C28.6641 27.2599 28.7958 28.2847 29.0057 29.2671C29.0909 29.6655 28.8817 29.8567 28.4686 29.9041C27.1211 30.059 25.9029 29.6295 24.702 29.0986C24.4044 28.9671 24.1109 28.826 23.7692 28.6871C23.7229 28.685 23.7197 28.6928 23.7097 28.6568C23.5457 28.4987 23.3917 28.3766 23.25 28.2385C23.2622 28.2225 23.2867 28.1906 23.2867 28.1906Z" fill="#079640"/>
<path d="M22.0543 27.6567C22.245 27.7379 22.4332 27.8637 22.6562 28.0509C22.7507 28.1388 22.8103 28.1653 22.8738 28.193C22.8775 28.1943 22.8803 28.2018 22.888 28.2409C23.1633 28.445 23.4309 28.6101 23.6984 28.7752C23.6984 28.7752 23.7016 28.7674 23.7058 28.7665C23.475 29.5381 23.2306 30.308 23.0094 31.0845C22.9015 31.463 22.8371 31.8538 22.7249 32.3675C21.9135 32.0897 21.0802 31.8044 20.2155 31.4935C20.1444 30.5743 20.8859 30.046 21.203 29.3175C21.4452 28.7612 21.766 28.2388 22.0543 27.6567Z" fill="#23C159"/>
<path d="M26.7256 23.7058C26.6557 23.6837 26.6325 23.6633 26.582 23.5936C26.5173 23.5253 26.4838 23.5019 26.4503 23.4784C26.4503 23.4784 26.4644 23.46 26.4618 23.4268C26.3439 23.2613 26.2286 23.129 26.1134 22.9968C26.1134 22.9968 26.1204 22.9931 26.1061 22.9731C26.069 22.9225 26.0422 22.896 26.0113 22.8737C26.0113 22.8737 26.0059 22.8748 25.9914 22.8505C25.9546 22.7986 25.9292 22.7743 25.9008 22.7532C25.9008 22.7532 25.893 22.7534 25.8847 22.7171C25.8356 22.6282 25.7947 22.5755 25.7539 22.5229C25.7539 22.5229 25.7691 22.5204 25.7515 22.5032C25.7027 22.459 25.6714 22.432 25.6401 22.405C25.6401 22.405 25.6541 22.404 25.6367 22.3862C25.5892 22.3409 25.5593 22.3134 25.5293 22.2859C25.5293 22.2859 25.5369 22.2877 25.5379 22.2588C25.5391 22.2083 25.5394 22.1868 25.5397 22.1653C26.3659 21.5745 27.1955 20.9885 28.0161 20.39C28.2798 20.1978 28.5198 19.9725 28.8179 19.7548C29.008 19.8856 29.1507 20.024 29.2934 20.1623C29.2934 20.1623 29.2866 20.1567 29.2894 20.1532C29.4964 20.5341 29.7006 20.9184 29.9361 21.3259C29.6404 21.6824 29.3369 22.0443 28.9806 22.3421C28.48 22.7605 27.9509 23.1475 27.4112 23.5136C27.2333 23.6343 26.9846 23.6488 26.7256 23.7058Z" fill="#23C159"/>
<path d="M12.9167 23.3989C13.191 22.6603 13.5257 21.9387 13.821 21.2012C14.0397 20.6549 14.5962 20.6433 14.9489 20.678C15.6634 20.7481 16.4145 20.9367 17.0319 21.2861C17.3199 21.4491 17.3314 22.1007 17.4756 22.586C17.467 22.7504 17.4511 22.8597 17.4092 23.0386C17.372 23.1508 17.3608 23.1934 17.3495 23.236C17.3127 23.4289 17.2759 23.6217 17.1756 23.8732C17.0736 24.0899 17.0352 24.248 16.9967 24.4061C16.9589 24.5154 16.9211 24.6248 16.8727 24.7695C16.4347 24.6357 16.0122 24.4527 15.5789 24.3003C14.7091 23.9944 13.8335 23.7051 12.9167 23.3989Z" fill="#6F26C4"/>
<path d="M17.0198 24.3136C17.0181 24.1899 17.068 24.0378 17.1717 23.8577C17.1741 23.9816 17.1228 24.1334 17.0198 24.3136Z" fill="#7C2CCB"/>
<path d="M19.9067 25.6813C19.9902 25.7232 20.0895 25.8267 20.2107 25.9852C20.1292 25.9411 20.0259 25.8419 19.9067 25.6813Z" fill="#19B050"/>
<path d="M17.3535 23.2499C17.2874 23.2282 17.3355 23.1797 17.4492 23.0979C17.4991 23.1175 17.4834 23.1703 17.3535 23.2499Z" fill="#5D1FBA"/>
<path d="M20.3625 26.1379C20.3912 26.1306 20.4453 26.1766 20.5145 26.2877C20.4824 26.2989 20.4352 26.2451 20.3625 26.1379Z" fill="#19B050"/>
<path d="M20.5146 26.2893C20.5431 26.2861 20.5962 26.3334 20.6666 26.4373C20.6257 26.4561 20.5775 26.4047 20.5146 26.2893Z" fill="#19B050"/>
<path d="M20.7783 18.1356C20.5314 17.1747 20.2584 16.219 20.062 15.248C20.0274 15.0771 20.2849 14.8117 20.4605 14.6454C20.6228 14.4918 20.8563 14.4127 21.0961 14.2843C21.5196 15.1881 21.8914 16.1146 22.2959 17.0267C22.5963 17.7042 22.6135 17.6908 21.8746 17.9363C21.7786 17.9682 21.7108 18.0843 21.6182 18.2029C21.3657 18.3101 21.125 18.3758 20.835 18.3872C20.7834 18.2672 20.7809 18.2014 20.7783 18.1356Z" fill="#6B24C1"/>
<path d="M20.7629 18.0833C20.8115 18.1389 20.8141 18.1956 20.8184 18.2948C20.6817 18.3539 20.5433 18.3705 20.3625 18.3872C20.4525 18.2863 20.5847 18.1853 20.7629 18.0833Z" fill="#5D1FBA"/>
<path d="M25.3287 16.8676C25.2838 16.8208 25.2545 16.7682 25.2253 16.7156C25.2738 16.7325 25.3223 16.7495 25.3772 16.7876C25.3788 16.8328 25.3658 16.8505 25.3287 16.8676Z" fill="#8E2ACD"/>
<path d="M23.8578 20.8164C23.8343 20.8296 23.7827 20.783 23.7058 20.6693C23.7302 20.6537 23.7799 20.7051 23.8578 20.8164Z" fill="#19B050"/>
<path d="M29.3283 20.2107C29.1777 20.0939 29.0235 19.936 28.8405 19.7483C28.7762 19.6521 28.7408 19.5856 28.7205 19.485C28.7355 19.4508 28.7985 19.4509 28.7985 19.4509C28.8531 19.4972 28.9077 19.5434 28.9938 19.6059C29.031 19.6667 29.0491 19.7046 29.105 19.7536C29.1632 19.8371 29.1961 19.9026 29.2583 19.9892C29.2999 20.0633 29.3123 20.1165 29.3283 20.2107Z" fill="#2BCC62"/>
<path d="M28.8714 19.4158C28.8816 19.4507 28.8131 19.4507 28.7787 19.4509C28.6308 19.3146 28.5173 19.1781 28.4165 19.0116C28.4529 18.9875 28.4766 18.9932 28.5359 19.0065C28.5806 19.0523 28.6022 19.0838 28.664 19.122C28.7482 19.2173 28.8046 19.2991 28.8714 19.4158Z" fill="#23C159"/>
<path d="M24.9215 21.7303C24.8774 21.7138 24.8265 21.6637 24.7695 21.5784C24.8139 21.5943 24.8643 21.6455 24.9215 21.7303Z" fill="#23C159"/>
<path d="M25.491 22.1862C25.5322 22.2178 25.5318 22.2507 25.5275 22.3332C25.4786 22.3513 25.4335 22.3199 25.3774 22.2427C25.3941 22.1937 25.4217 22.1906 25.491 22.1862Z" fill="#2BCC62"/>
<path d="M25.0736 21.8818C25.0462 21.8873 24.9913 21.842 24.9216 21.7315C24.9533 21.7212 24.9997 21.7761 25.0736 21.8818Z" fill="#23C159"/>
<path d="M4.42016 9.71837C4.56569 9.91075 4.71121 10.1031 4.86287 10.3329C4.32501 11.4648 3.16756 11.7091 2.19526 12.2047C2.01314 12.2975 1.77801 12.285 1.57696 12.3497C1.41861 12.4007 1.27505 12.4957 1.11702 12.6127C0.955809 12.4156 0.8025 12.177 0.641358 11.8545C0.512641 11.5158 0.391758 11.261 0.270873 11.0063C0.270873 11.0063 0.278352 11.0076 0.277063 10.9712C0.23455 10.8417 0.193326 10.7486 0.1521 10.6556C0.1521 10.6556 0.159053 10.6562 0.160345 10.6064C0.15895 10.3141 0.156263 10.0714 0.20876 9.82978C0.865768 9.74824 1.47396 9.6956 2.06759 9.57454C2.64335 9.45712 3.20415 9.26941 3.7701 9.11761C3.76868 9.12267 3.75809 9.12462 3.77072 9.13681C3.78335 9.14899 3.83309 9.15527 3.83309 9.15527C3.83309 9.15527 3.87637 9.12679 3.9036 9.15244C4.09394 9.35818 4.25705 9.53828 4.42016 9.71837Z" fill="#23C159"/>
<path d="M5.92651 11.549C6.06795 11.6068 6.21332 11.7118 6.38239 11.8529C6.24755 11.7913 6.089 11.6937 5.92651 11.549Z" fill="#23C159"/>
<path d="M1.49305 13.2932C1.42434 13.1675 1.39237 13.0682 1.36768 12.9166C1.47194 13.0123 1.56892 13.1602 1.6716 13.3653C1.62812 13.3883 1.57896 13.3539 1.49305 13.2932Z" fill="#23C159"/>
<path d="M4.86255 10.3333C4.91008 10.3539 4.95892 10.4052 5.01451 10.4853C4.96879 10.464 4.91632 10.414 4.86255 10.3333Z" fill="#23C159"/>
<path d="M5.77441 11.2452C5.80025 11.2421 5.85428 11.2888 5.92637 11.3964C5.89716 11.4032 5.84989 11.3491 5.77441 11.2452Z" fill="#23C159"/>
<path d="M9.59525 15.0441C9.87707 15.1204 10.1644 15.1402 9.98029 15.5398C9.93044 15.648 9.99239 15.8331 10.0493 15.9621C10.2963 16.5221 10.586 17.0641 10.8117 17.6322C11.077 18.3 10.947 18.6267 10.3105 18.9753C9.97504 19.1589 9.61284 19.2931 9.21967 19.4509C8.90524 19.2682 8.55293 19.1412 8.37794 18.8894C7.89133 18.1891 7.46866 17.4426 7.04301 16.7014C6.93229 16.5086 6.90309 16.2683 6.83838 15.9973C7.74486 15.6432 8.64941 15.3416 9.59525 15.0441Z" fill="#6F26C4"/>
<path d="M3.73695 9.05462C3.18491 9.21028 2.63926 9.39657 2.07906 9.51311C1.50147 9.63326 0.909709 9.6855 0.256095 9.72546C0.121733 9.42757 -0.010894 9.16864 0.000709724 8.91631C0.0484322 7.87877 0.140004 6.84324 0.215449 5.80696C0.215449 5.80696 0.219003 5.81419 0.251107 5.79009C0.337077 5.58462 0.390944 5.40327 0.444811 5.22191C0.444811 5.22191 0.442274 5.22943 0.475443 5.20899C0.721434 4.77257 0.934252 4.3566 1.14707 3.94062C1.14707 3.94062 1.14819 3.94964 1.18167 3.9368C1.26078 3.84283 1.30643 3.76172 1.35207 3.6806C1.35207 3.6806 1.36872 3.69079 1.39168 3.67812C1.44257 3.60319 1.47049 3.54094 1.49841 3.47869C1.49841 3.47869 1.49871 3.47731 1.49786 3.47592C1.72102 3.26951 1.94503 3.06448 2.1905 2.82724C2.27604 2.73077 2.34011 2.66651 2.41802 2.57061C2.43185 2.53898 2.43665 2.54586 2.45712 2.5329C2.50768 2.49612 2.53215 2.46751 2.551 2.43411C2.551 2.43411 2.55157 2.43634 2.58979 2.42869C2.71703 2.33224 2.80604 2.24343 2.89506 2.15463C2.93179 2.11417 2.96853 2.0737 3.01784 2.00884C3.28349 1.847 3.53656 1.70955 3.81583 1.54368C5.58986 0.739763 7.39 0.53202 9.25275 1.02374C9.41897 1.06761 9.57864 1.13621 9.72545 1.23122C9.58145 1.36085 9.4254 1.43052 9.33131 1.54916C9.15904 1.76637 9.05195 2.03837 8.86724 2.24188C8.23962 2.93341 7.58998 3.60501 6.93226 4.30168C7.1507 4.51041 7.35366 4.70435 7.51451 4.89234C6.40098 4.4433 5.34906 3.94179 4.25166 3.5765C3.44629 3.30844 2.58096 3.20133 1.72388 3.64204C1.63645 4.25073 1.41333 4.84258 1.92592 5.37877C2.32909 6.26751 2.70192 7.12595 3.10477 7.97011C3.28436 8.34642 3.52437 8.694 3.73695 9.05462Z" fill="#2BCC62"/>
<path d="M7.62056 4.88898C7.41558 4.69306 7.2106 4.49713 6.98999 4.28626C7.65424 3.58246 8.31034 2.90398 8.94419 2.20538C9.13074 1.99978 9.23889 1.725 9.41287 1.50556C9.50789 1.38571 9.66549 1.31533 9.84117 1.21711C9.88747 1.21158 9.88217 1.22134 9.90208 1.2565C10.1221 1.34604 10.3223 1.40042 10.5224 1.4548C10.5224 1.4548 10.5281 1.43923 10.5666 1.46652C10.6759 1.52032 10.7467 1.54682 10.8176 1.57332C10.8176 1.57332 10.8149 1.57968 10.838 1.60069C10.9246 1.64493 10.9882 1.66815 11.0518 1.69137C11.0518 1.69137 11.0466 1.69697 11.0714 1.71751C11.1601 1.76183 11.224 1.7856 11.2879 1.80938C11.2879 1.80938 11.2817 1.81363 11.3066 1.8342C11.3956 1.87873 11.4597 1.90272 11.5238 1.9267C11.5238 1.9267 11.5212 1.93274 11.5463 1.95461C11.6139 1.99995 11.6563 2.02341 11.6988 2.04688C11.7487 2.0567 11.7986 2.06653 11.8786 2.12937C11.9381 2.21604 11.9673 2.2497 11.9966 2.28335C11.9966 2.28335 11.9988 2.23977 12.0047 2.28056C12.0032 2.34896 11.9958 2.37657 11.9884 2.40418C11.6448 2.82891 11.3555 3.31772 10.9457 3.66446C10.1934 4.30099 9.37001 4.85379 8.54038 5.47055C8.327 5.42617 8.1495 5.35274 7.93158 5.22319C7.88372 5.14662 7.87629 5.12616 7.87307 5.08603C7.83271 5.04271 7.78815 5.01907 7.74411 4.99298C7.74464 4.99051 7.74658 4.99499 7.7296 4.97209C7.68749 4.92031 7.65878 4.89556 7.62774 4.87959C7.62898 4.88425 7.62056 4.88898 7.62056 4.88898Z" fill="#23C159"/>
<path d="M10.4853 1.36763C10.3103 1.35037 10.1066 1.3002 9.87744 1.21567C10.0535 1.23244 10.255 1.28358 10.4853 1.36763Z" fill="#2BCC62"/>
<path d="M10.789 1.51961C10.7017 1.51855 10.6126 1.47359 10.4851 1.38675C10.5189 1.35619 10.5911 1.36751 10.7174 1.38462C10.7714 1.39042 10.7872 1.47571 10.789 1.51961Z" fill="#2BCC62"/>
<path d="M1.06365 3.95097C0.893129 4.34174 0.696423 4.7454 0.466071 5.16665C0.445639 5.10817 0.458852 5.0321 0.478429 4.91768C0.516243 4.8243 0.54769 4.76928 0.583687 4.682C0.624964 4.60098 0.661692 4.55223 0.708413 4.47383C0.77647 4.34736 0.834536 4.25054 0.902291 4.12078C0.953809 4.04652 0.995638 4.0052 1.06365 3.95097Z" fill="#36CE6E"/>
<path d="M0.303955 10.9411C0.455817 11.1515 0.607435 11.4035 0.759836 11.7009C0.691569 11.6695 0.622524 11.5926 0.521064 11.4913C0.462781 11.4035 0.436919 11.34 0.379374 11.2534C0.333032 11.1477 0.318374 11.0653 0.303955 10.9411Z" fill="#36CE6E"/>
<path d="M0.455915 5.16664C0.435528 5.34227 0.386084 5.54596 0.303955 5.77448C0.323133 5.59778 0.374997 5.39625 0.455915 5.16664Z" fill="#36CE6E"/>
<path d="M0.1521 10.6372C0.204182 10.6957 0.25441 10.7968 0.30406 10.9411C0.252405 10.8828 0.201327 10.7813 0.1521 10.6372Z" fill="#36CE6E"/>
<path d="M2.88717 2.12744C2.83266 2.21763 2.74365 2.3207 2.61555 2.43079C2.57645 2.43781 2.58183 2.37819 2.58645 2.3487C2.62999 2.31234 2.66289 2.29222 2.70424 2.23066C2.76338 2.18175 2.80803 2.16104 2.88717 2.12744Z" fill="#36CE6E"/>
<path d="M1.51964 3.49509C1.51637 3.5392 1.47402 3.58538 1.38884 3.64705C1.35585 3.62718 1.36569 3.59182 1.38934 3.53014C1.40314 3.50381 1.48056 3.49715 1.51964 3.49509Z" fill="#36CE6E"/>
<path d="M1.36778 3.64705C1.35141 3.73811 1.30797 3.8386 1.22965 3.95097C1.20559 3.91099 1.21642 3.85913 1.23554 3.76822C1.27611 3.70494 1.30842 3.68071 1.36778 3.64705Z" fill="#36CE6E"/>
<path d="M13.5749 10.7835C13.5302 10.7337 13.5286 10.6862 13.5257 10.6032C13.5244 10.5676 13.5192 10.5614 13.5453 10.5258C13.5859 10.4112 13.6004 10.3322 13.6148 10.2532C13.9052 9.27746 14.1956 8.30171 14.5157 7.29408C15.0418 7.60752 15.517 7.98866 16.0397 8.28962C16.7907 8.72203 17.5762 9.09603 18.3871 9.50287C18.034 10.1706 17.6497 10.8359 17.2441 11.4882C16.9982 11.8836 16.0063 11.9805 15.3605 11.6646C14.9281 11.453 14.5224 11.1886 14.0974 10.9614C13.9491 10.8821 13.7786 10.8432 13.5749 10.7835Z" fill="#7328C6"/>
<path d="M8.96565 5.77449C8.82905 5.71264 8.67718 5.61024 8.50977 5.47057C8.64627 5.5335 8.79832 5.63371 8.96565 5.77449Z" fill="#23C159"/>
<path d="M12.6128 2.58459C12.646 2.57499 12.6978 2.61993 12.7648 2.73307C12.7304 2.74721 12.6809 2.69316 12.6128 2.58459Z" fill="#2BCC62"/>
<path d="M12.0163 2.43136C11.9976 2.40311 12.0035 2.37143 12.0221 2.29372C12.0686 2.26482 12.1022 2.28196 12.1568 2.32468C12.1322 2.37615 12.0866 2.40205 12.0163 2.43136Z" fill="#2BCC62"/>
<path d="M13.3726 3.19139C13.3935 3.1876 13.4486 3.23007 13.5245 3.3417C13.4991 3.35311 13.453 3.29538 13.3726 3.19139Z" fill="#2BCC62"/>
<path d="M12.7646 2.73697C12.7865 2.72555 12.8381 2.77218 12.9166 2.88498C12.8938 2.8991 12.8441 2.84706 12.7646 2.73697Z" fill="#2BCC62"/>
<path d="M11.5489 8.05389C11.5058 8.03243 11.4561 7.98106 11.397 7.90193C11.4392 7.92411 11.4907 7.97405 11.5489 8.05389Z" fill="#19B050"/>
<path d="M11.3971 7.90193C11.3531 7.88508 11.2993 7.83543 11.2451 7.74997C11.2923 7.76581 11.3398 7.81747 11.3971 7.90193Z" fill="#19B050"/>
<path d="M11.8529 8.35777C11.8263 8.35956 11.773 8.31143 11.7009 8.20609C11.7301 8.20187 11.7782 8.25485 11.8529 8.35777Z" fill="#19B050"/>
<path d="M12.0047 2.27884C11.96 2.28564 11.9177 2.23084 11.8528 2.12753C11.8892 2.12509 11.9482 2.17116 12.0047 2.27884Z" fill="#2BCC62"/>
<path d="M11.245 1.82123C11.2109 1.83564 11.1615 1.78183 11.093 1.67293C11.1259 1.6629 11.1777 1.70796 11.245 1.82123Z" fill="#2BCC62"/>
<path d="M10.941 1.66791C10.9059 1.68663 10.8569 1.63246 10.7891 1.52189C10.8225 1.50867 10.8748 1.55185 10.941 1.66791Z" fill="#2BCC62"/>
<path d="M7.86599 5.10579C7.87334 5.12589 7.88069 5.146 7.90189 5.19538C7.47749 5.17439 7.03771 5.0713 6.60125 5.08368C5.25255 5.12194 4.24976 6.04166 4.19103 7.38299C4.15991 8.09384 4.34015 8.81381 4.43018 9.57349C4.27685 9.43982 4.11832 9.26233 3.90467 9.05394C3.83034 9.02607 3.81112 9.0291 3.7919 9.03213C3.7919 9.03213 3.8022 9.03021 3.80358 9.02523C3.59261 8.66213 3.35286 8.31697 3.17348 7.94326C2.77107 7.10496 2.39865 6.25246 1.98504 5.32024C1.91187 4.69232 1.86768 4.14991 1.82349 3.60749C2.65024 3.20754 3.51462 3.31391 4.31909 3.58012C5.41528 3.94287 6.46604 4.4409 7.57834 4.88683C7.62041 4.89274 7.62874 4.88809 7.64011 4.90945C7.67646 4.96152 7.70764 4.98357 7.74505 4.99694C7.74505 4.99694 7.74313 4.99254 7.75949 5.01698C7.80232 5.0678 7.83237 5.08926 7.86599 5.10579Z" fill="#079640"/>
<path d="M26.137 23.0979C26.234 23.1699 26.339 23.2697 26.4409 23.4019C26.3401 23.3314 26.2426 23.2286 26.137 23.0979Z" fill="#2BCC62"/>
<path d="M22.7939 28.1126C22.9311 28.1408 23.0682 28.1691 23.2367 28.2171C23.2682 28.237 23.2397 28.2606 23.1865 28.2646C23.0339 28.2398 22.9346 28.211 22.8353 28.1823C22.8353 28.1823 22.8321 28.1767 22.8214 28.16C22.8107 28.1434 22.7939 28.1126 22.7939 28.1126Z" fill="#079640"/>
<path d="M25.5293 22.3394C25.5629 22.3288 25.6085 22.3842 25.6813 22.4897C25.6528 22.495 25.597 22.4503 25.5293 22.3394Z" fill="#2BCC62"/>
<path d="M22.946 28.2646C23.0211 28.2643 23.1034 28.2997 23.2181 28.3447C23.399 28.4654 23.5476 28.5766 23.7058 28.7205C23.4615 28.6022 23.2074 28.4513 22.946 28.2646Z" fill="#2BCC62"/>
<path d="M1.80087 3.64705C1.87523 4.16173 1.91989 4.71486 1.97555 5.31861C1.48735 4.86282 1.71261 4.26347 1.80087 3.64705Z" fill="#36CE6E"/>
<path d="M7.7501 5.01051C7.71505 5.02967 7.66203 4.98338 7.59814 4.86442C7.631 4.85253 7.67928 4.90363 7.7501 5.01051Z" fill="#2BCC62"/>
</svg>
